<?xml version="1.0" encoding="UTF-8" standalone="no"?>
<svg
   xmlns:dc="http://purl.org/dc/elements/1.1/"
   xmlns:cc="http://creativecommons.org/ns#"
   xmlns:rdf="http://www.w3.org/1999/02/22-rdf-syntax-ns#"
   xmlns:svg="http://www.w3.org/2000/svg"
   xmlns="http://www.w3.org/2000/svg"
   xmlns:sodipodi="http://sodipodi.sourceforge.net/DTD/sodipodi-0.dtd"
   xmlns:inkscape="http://www.inkscape.org/namespaces/inkscape"
   width="8"
   height="14"
   viewBox="0 0 8 14"
   fill="none"
   version="1.1"
   id="svg24"
   sodipodi:docname="sl-arrow_r_2.svg"
   inkscape:version="1.0.2 (e86c870879, 2021-01-15, custom)">
  <metadata
     id="metadata30">
    <rdf:RDF>
      <cc:Work
         rdf:about="">
        <dc:format>image/svg+xml</dc:format>
        <dc:type
           rdf:resource="http://purl.org/dc/dcmitype/StillImage" />
        <dc:title></dc:title>
      </cc:Work>
    </rdf:RDF>
  </metadata>
  <defs
     id="defs28" />
  <sodipodi:namedview
     pagecolor="#ffffff"
     bordercolor="#666666"
     borderopacity="1"
     objecttolerance="10"
     gridtolerance="10"
     guidetolerance="10"
     inkscape:pageopacity="0"
     inkscape:pageshadow="2"
     inkscape:window-width="1920"
     inkscape:window-height="997"
     id="namedview26"
     showgrid="false"
     inkscape:pagecheckerboard="false"
     inkscape:zoom="41.7193"
     inkscape:cx="4.513763"
     inkscape:cy="7.2940605"
     inkscape:window-x="-9"
     inkscape:window-y="-9"
     inkscape:window-maximized="1"
     inkscape:current-layer="svg24" />
  <path
     style="fill:#1d3d6f;fill-opacity:1;stroke-width:0.0169492"
     d="m 1.1712812,13.953061 c 0.1169344,-0.02823 0.2554476,-0.0903 0.3584037,-0.160613 0.064539,-0.04408 1.1779759,-1.174135 3.1853141,-3.23287 3.3133054,-3.3981404 3.1336652,-3.2048928 3.2209787,-3.4649641 0.044043,-0.1311863 0.044043,-0.4302554 0,-0.5593221 C 7.8486273,6.2793144 8.0298456,6.4653991 4.7008973,3.2133334 2.5431486,1.1054184 1.5727446,0.16846718 1.5087307,0.13121113 1.4581454,0.10177046 1.3653388,0.05939964 1.3024939,0.03705373 1.2029757,0.00166785 1.1619835,-0.00294361 0.98484049,0.00131897 c -0.1771431,0.00426259 -0.2181353,0.01084688 -0.3176534,0.05102211 -0.3111868,0.12562539 -0.5207998,0.34442269 -0.626413,0.65385925 -0.051283,0.15025448 -0.054808,0.43867327 -0.00707,0.57856547 0.087052,0.2551024 -0.062112,0.1008616 2.83539621,2.931896 1.4852677,1.4511927 2.7004867,2.6460478 2.7004867,2.6552334 0,0.00919 -1.215219,1.262524 -2.7004867,2.7851965 -2.89750861,2.9704793 -2.74834451,2.8090603 -2.83539621,3.0683523 -0.047737,0.14219 -0.044212,0.430439 0.00707,0.578225 0.1401913,0.404001 0.4846898,0.657478 0.9016935,0.663452 0.088559,0.0013 0.19152541,-0.0051 0.22881361,-0.01411 z"
     id="path45" />
</svg>
